# xmcd
# 
# Track frame offsets:
#     150
#     17243
#     43905
#     68801
#     87119
#     101980
#     127036
# 
# Disc length: 2038
# 
# Revision: 0
# Processed by: cddbd v1.5.2PL0 Copyright (c) Steve Scherf et al.
# Submitted via: fre:ac v1.0.17
# 
DISCID=6007f407
DTITLE=GENTRI - GENTRI
DYEAR=2014
DGENRE=Gospel
TTITLE0=Dare
TTITLE1=Home
TTITLE2=Don't Let Go
TTITLE3=The Face
TTITLE4=One
TTITLE5=Guide Me to Thee
TTITLE6=Lullaby
EXTD=
EXTT0=
EXTT1=
EXTT2=
EXTT3=
EXTT4=
EXTT5=
EXTT6=
PLAYORDER=
